HIERARCHY
ROOT Root
{
  OFFSET 0.0 0.0 0.0
  CHANNELS 6 Xposition Yposition Zposition Zrotation Yrotation Xrotation
  JOINT Hips
  {
    OFFSET 0.0 100.0 0.0
    CHANNELS 6 Xposition Yposition Zposition Zrotation Yrotation Xrotation
    JOINT Spine1
    {
      OFFSET -0.013727 5.003763 -0.053727
      CHANNELS 3 Zrotation Yrotation Xrotation
      JOINT Spine2
      {
        OFFSET -0.0 7.125301 -0.029825
        CHANNELS 3 Zrotation Yrotation Xrotation
        JOINT Chest
        {
          OFFSET -1e-06 7.550063 -0.815971
          CHANNELS 3 Zrotation Yrotation Xrotation
          JOINT Neck1
          {
            OFFSET -0.181677 26.311295 -0.553348
            CHANNELS 3 Zrotation Yrotation Xrotation
            JOINT Neck2
            {
              OFFSET -3e-06 7.709397 2.302585
              CHANNELS 3 Zrotation Yrotation Xrotation
              JOINT Head
              {
                OFFSET -5e-06 6.128916 1.953709
                CHANNELS 3 Zrotation Yrotation Xrotation
                JOINT HeadEnd
                {
                  OFFSET 0.003598 16.065403 -1.835379
                  CHANNELS 3 Zrotation Yrotation Xrotation
                }
                JOINT Jaw
                {
                  OFFSET 0.002637 0.475592 3.094941
                  CHANNELS 3 Zrotation Yrotation Xrotation
                }
                JOINT LeftEye
                {
                  OFFSET 3.206381 5.380205 7.586883
                  CHANNELS 3 Zrotation Yrotation Xrotation
                }
                JOINT RightEye
                {
                  OFFSET -3.22244 5.361869 7.558234
                  CHANNELS 3 Zrotation Yrotation Xrotation
                }
              }
            }
          }
          JOINT LeftShoulder
          {
            OFFSET 1.621652 23.237164 5.113413
            CHANNELS 3 Zrotation Yrotation Xrotation
            JOINT LeftArm
            {
              OFFSET 14.919846 2e-06 -5.502326
              CHANNELS 3 Zrotation Yrotation Xrotation
              JOINT LeftForeArm
              {
                OFFSET 28.739307 0.0 -0.002588
                CHANNELS 3 Zrotation Yrotation Xrotation
                JOINT LeftHand
                {
                  OFFSET 27.093981 -1e-06 0.002609
                  CHANNELS 3 Zrotation Yrotation Xrotation
                  JOINT LeftHandThumb1
                  {
                    OFFSET 2.276482 -1.392045 3.191413
                    CHANNELS 3 Zrotation Yrotation Xrotation
                    JOINT LeftHandThumb2
                    {
                      OFFSET 4.012836 -1.828127 1.641654
                      CHANNELS 3 Zrotation Yrotation Xrotation
                      JOINT LeftHandThumb3
                      {
                        OFFSET 2.798515 0.0 -3e-06
                        CHANNELS 3 Zrotation Yrotation Xrotation
                        JOINT LeftHandThumbEnd
                        {
                          OFFSET 3.180793 -4e-06 4e-06
                          CHANNELS 3 Zrotation Yrotation Xrotation
                        }
                      }
                    }
                  }
                  JOINT LeftHandIndex1
                  {
                    OFFSET 3.247555 -0.531998 2.296169
                    CHANNELS 3 Zrotation Yrotation Xrotation
                    JOINT LeftHandIndex2
                    {
                      OFFSET 6.364578 0.01206 0.1786
                      CHANNELS 3 Zrotation Yrotation Xrotation
                      JOINT LeftHandIndex3
                      {
                        OFFSET 3.662364 0.0 0.0
                        CHANNELS 3 Zrotation Yrotation Xrotation
                        JOINT LeftHandIndex4
                        {
                          OFFSET 2.329242 4e-06 4e-06
                          CHANNELS 3 Zrotation Yrotation Xrotation
                          JOINT LeftHandIndexEnd
                          {
                            OFFSET 2.759615 -0.180537 -0.113024
                            CHANNELS 3 Zrotation Yrotation Xrotation
                          }
                        }
                      }
                    }
                  }
                  JOINT LeftHandMiddle1
                  {
                    OFFSET 3.163495 0.240981 1.000332
                    CHANNELS 3 Zrotation Yrotation Xrotation
                    JOINT LeftHandMiddle2
                    {
                      OFFSET 6.19078 -0.259278 -1.002548
                      CHANNELS 3 Zrotation Yrotation Xrotation
                      JOINT LeftHandMiddle3
                      {
                        OFFSET 4.35652 -4e-06 -1e-06
                        CHANNELS 3 Zrotation Yrotation Xrotation
                        JOINT LeftHandMiddle4
                        {
                          OFFSET 2.996877 -8e-06 0.0
                          CHANNELS 3 Zrotation Yrotation Xrotation
                          JOINT LeftHandMiddleEnd
                          {
                            OFFSET 2.304287 -0.294569 -0.031741
                            CHANNELS 3 Zrotation Yrotation Xrotation
                          }
                        }
                      }
                    }
                  }
                  JOINT LeftHandRing1
                  {
                    OFFSET 2.882643 -0.053652 -0.322543
                    CHANNELS 3 Zrotation Yrotation Xrotation
                    JOINT LeftHandRing2
                    {
                      OFFSET 5.854541 -0.486202 -1.373841
                      CHANNELS 3 Zrotation Yrotation Xrotation
                      JOINT LeftHandRing3
                      {
                        OFFSET 4.350578 0.0 3e-06
                        CHANNELS 3 Zrotation Yrotation Xrotation
                        JOINT LeftHandRing4
                        {
                          OFFSET 2.651321 7e-06 2e-06
                          CHANNELS 3 Zrotation Yrotation Xrotation
                          JOINT LeftHandRingEnd
                          {
                            OFFSET 1.936105 0.077687 -7.1e-05
                            CHANNELS 3 Zrotation Yrotation Xrotation
                          }
                        }
                      }
                    }
                  }
                  JOINT LeftHandPinky1
                  {
                    OFFSET 2.8655 -0.310005 -1.600378
                    CHANNELS 3 Zrotation Yrotation Xrotation
                    JOINT LeftHandPinky2
                    {
                      OFFSET 5.087849 -1.331141 -1.77123
                      CHANNELS 3 Zrotation Yrotation Xrotation
                      JOINT LeftHandPinky3
                      {
                        OFFSET 3.070974 4e-06 0.0
                        CHANNELS 3 Zrotation Yrotation Xrotation
                        JOINT LeftHandPinky4
                        {
                          OFFSET 1.549672 0.0 1e-06
                          CHANNELS 3 Zrotation Yrotation Xrotation
                          JOINT LeftHandPinkyEnd
                          {
                            OFFSET 1.944893 -0.157802 0.057219
                            CHANNELS 3 Zrotation Yrotation Xrotation
                          }
                        }
                      }
                    }
                  }
                }
              }
            }
          }
          JOINT RightShoulder
          {
            OFFSET -1.380118 23.180309 5.214158
            CHANNELS 3 Zrotation Yrotation Xrotation
            JOINT RightArm
            {
              OFFSET -15.037196 1.2e-05 -5.545604
              CHANNELS 3 Zrotation Yrotation Xrotation
              JOINT RightForeArm
              {
                OFFSET -28.736639 2e-06 -0.002597
                CHANNELS 3 Zrotation Yrotation Xrotation
                JOINT RightHand
                {
                  OFFSET -27.133619 -0.0 0.002613
                  CHANNELS 3 Zrotation Yrotation Xrotation
                  JOINT RightHandThumb1
                  {
                    OFFSET -2.274032 -1.383988 3.163127
                    CHANNELS 3 Zrotation Yrotation Xrotation
                    JOINT RightHandThumb2
                    {
                      OFFSET -4.011429 -1.827466 1.640914
                      CHANNELS 3 Zrotation Yrotation Xrotation
                      JOINT RightHandThumb3
                      {
                        OFFSET -2.794935 -4e-06 -3e-06
                        CHANNELS 3 Zrotation Yrotation Xrotation
                        JOINT RightHandThumbEnd
                        {
                          OFFSET -3.183852 4e-06 1e-06
                          CHANNELS 3 Zrotation Yrotation Xrotation
                        }
                      }
                    }
                  }
                  JOINT RightHandIndex1
                  {
                    OFFSET -3.253266 -0.520057 2.282866
                    CHANNELS 3 Zrotation Yrotation Xrotation
                    JOINT RightHandIndex2
                    {
                      OFFSET -6.341917 0.012471 0.178266
                      CHANNELS 3 Zrotation Yrotation Xrotation
                      JOINT RightHandIndex3
                      {
                        OFFSET -3.654871 -8e-06 -0.0
                        CHANNELS 3 Zrotation Yrotation Xrotation
                        JOINT RightHandIndex4
                        {
                          OFFSET -2.327586 0.0 1e-06
                          CHANNELS 3 Zrotation Yrotation Xrotation
                          JOINT RightHandIndexEnd
                          {
                            OFFSET -2.76179 -0.180656 -0.113078
                            CHANNELS 3 Zrotation Yrotation Xrotation
                          }
                        }
                      }
                    }
                  }
                  JOINT RightHandMiddle1
                  {
                    OFFSET -3.168106 0.246593 1.00103
                    CHANNELS 3 Zrotation Yrotation Xrotation
                    JOINT RightHandMiddle2
                    {
                      OFFSET -6.180828 -0.258836 -1.000895
                      CHANNELS 3 Zrotation Yrotation Xrotation
                      JOINT RightHandMiddle3
                      {
                        OFFSET -4.348901 0.0 -0.0
                        CHANNELS 3 Zrotation Yrotation Xrotation
                        JOINT RightHandMiddle4
                        {
                          OFFSET -3.00024 -4e-06 -2e-06
                          CHANNELS 3 Zrotation Yrotation Xrotation
                          JOINT RightHandMiddleEnd
                          {
                            OFFSET -2.30252 -0.29437 -0.031706
                            CHANNELS 3 Zrotation Yrotation Xrotation
                          }
                        }
                      }
                    }
                  }
                  JOINT RightHandRing1
                  {
                    OFFSET -2.88569 -0.067952 -0.308858
                    CHANNELS 3 Zrotation Yrotation Xrotation
                    JOINT RightHandRing2
                    {
                      OFFSET -5.854198 -0.48613 -1.373731
                      CHANNELS 3 Zrotation Yrotation Xrotation
                      JOINT RightHandRing3
                      {
                        OFFSET -4.33881 -4e-06 -0.0
                        CHANNELS 3 Zrotation Yrotation Xrotation
                        JOINT RightHandRing4
                        {
                          OFFSET -2.654903 -4e-06 4e-06
                          CHANNELS 3 Zrotation Yrotation Xrotation
                          JOINT RightHandRingEnd
                          {
                            OFFSET -1.933568 0.077527 -5.2e-05
                            CHANNELS 3 Zrotation Yrotation Xrotation
                          }
                        }
                      }
                    }
                  }
                  JOINT RightHandPinky1
                  {
                    OFFSET -2.866425 -0.342796 -1.584145
                    CHANNELS 3 Zrotation Yrotation Xrotation
                    JOINT RightHandPinky2
                    {
                      OFFSET -5.091371 -1.332055 -1.772385
                      CHANNELS 3 Zrotation Yrotation Xrotation
                      JOINT RightHandPinky3
                      {
                        OFFSET -3.062664 -4e-06 1e-06
                        CHANNELS 3 Zrotation Yrotation Xrotation
                        JOINT RightHandPinky4
                        {
                          OFFSET -1.546529 4e-06 -2e-06
                          CHANNELS 3 Zrotation Yrotation Xrotation
                          JOINT RightHandPinkyEnd
                          {
                            OFFSET -1.945119 -0.157718 0.057211
                            CHANNELS 3 Zrotation Yrotation Xrotation
                          }
                        }
                      }
                    }
                  }
                }
              }
            }
          }
        }
      }
    }
    JOINT LeftLeg
    {
      OFFSET 10.043214 -8.434526 2.595655
      CHANNELS 3 Zrotation Yrotation Xrotation
      JOINT LeftShin
      {
        OFFSET -1e-06 -43.221752 -0.802913
        CHANNELS 3 Zrotation Yrotation Xrotation
        JOINT LeftFoot
        {
          OFFSET 1e-06 -42.155094 -3.481523
          CHANNELS 3 Zrotation Yrotation Xrotation
          JOINT LeftToeBase
          {
            OFFSET 0.0 -5.059472 13.231529
            CHANNELS 3 Zrotation Yrotation Xrotation
            JOINT LeftToeEnd
            {
              OFFSET -0.009607 -1.647619 6.513017
              CHANNELS 3 Zrotation Yrotation Xrotation
            }
          }
        }
      }
    }
    JOINT RightLeg
    {
      OFFSET -10.047278 -8.29526 2.620317
      CHANNELS 3 Zrotation Yrotation Xrotation
      JOINT RightShin
      {
        OFFSET 1e-06 -43.362206 -0.805556
        CHANNELS 3 Zrotation Yrotation Xrotation
        JOINT RightFoot
        {
          OFFSET 2e-06 -42.117393 -3.478398
          CHANNELS 3 Zrotation Yrotation Xrotation
          JOINT RightToeBase
          {
            OFFSET -0.0 -5.079609 13.284196
            CHANNELS 3 Zrotation Yrotation Xrotation
            JOINT RightToeEnd
            {
              OFFSET 0.009532 -1.634378 6.460591
              CHANNELS 3 Zrotation Yrotation Xrotation
            }
          }
        }
      }
    }
  }
}
MOTION
Frames: 4
Frame Time: 0.03333333333333333
0.0 0.0 0.0 0.0 -0.0 0.0 -0.196716 100.023819 6.357965 0.43022 -1.329424 2.443671 0.992386 0.333648 -5.416059 -0.314843 1.042461 -7.312151 -2.763053 -0.158748 5.760275 -4.876323 1.211222 -36.064068 2.268667 3.293971 -3.627912 4.664958 -2.972354 -18.505655 7.7e-05 -2.2e-05 6e-06 -0.165702 -0.107045 -0.013649 0.453089 -3.717758 -9.52025 -0.792978 3.53989 -9.780496 24.811413 -11.44817 8.708126 40.258968 12.426929 -80.761078 2.677729 -13.240055 -1.36448 21.805595 4.120075 -47.090633 -5.882109 9.86129 0.702592 -10.936878 -0.360575 7.156207 -0.0 8.77483 -0.0 -16.519106 18.12948 6.093596 -1.844034 2.498505 -2.507277 -10.163605 4.678947 4.621109 -20.976034 -3e-06 3e-06 -21.226295 2.451699 -3.593999 0.0 -6e-06 -0.0 -1.362682 2.240798 -0.746324 -21.334925 0.58491 3.008323 -13.82122 -2e-06 2e-06 -23.887182 -0.249078 -0.839482 -58.110443 3.3314 -0.685311 -0.294024 1.679688 0.833256 -14.218215 0.093214 1.30058 -34.212063 -0.287564 0.967171 -20.033218 0.964536 1.212844 -0.0 1e-06 -1e-06 -3.44039 0.788234 0.501657 -15.928194 -3.16731 2.999706 -6.33883 -1e-06 3e-06 -18.123457 3.648185 -4.905672 -4e-06 0.0 -2e-06 -28.12822 18.870634 3.625319 -45.512932 -12.001959 -73.832352 -0.049682 17.383533 -0.668202 -12.735846 -8.272635 17.718483 2.243541 -5.255038 -3.180158 14.282896 -0.826594 6.952506 -3e-06 -12.690605 1e-06 16.319546 -16.376326 2.301723 1.665667 -1.955922 -2.878299 4.727801 -4.170588 4.993925 11.02053 3e-06 -1e-06 12.109056 -3.735716 -2.866784 -0.0 -0.0 1e-06 1.291986 -1.92855 -1.498091 14.800136 0.567469 3.865609 14.242577 -1.341736 -6.660658 19.631975 0.143925 -0.648242 49.55122 -0.999195 -6.480012 0.353029 -1.511151 -0.031939 20.222801 3.684312 2.316632 18.787279 6e-06 2e-06 10.751631 -0.479868 1.397908 -0.0 0.0 -2e-06 3.273808 0.305947 -0.58011 21.486822 11.830379 2.266135 8.16293 2e-06 1e-06 18.399086 -3.798985 -4.940575 2e-06 -0.0 -0.0 2.353254 7.707878 2.746953 0.044495 -0.241369 1.234145 -3.744537 -2.792954 -3.615566 1.675824 -1.912199 -0.933814 -0.0 0.0 2e-06 -2.405007 -2.908827 1.306096 -0.040554 -0.077617 4.56168 3.153846 -2.581121 -7.875548 -1.431305 1.291735 -0.142985 -0.0 -0.0 -1e-06 
0.0 0.0 0.0 0.0 -0.0 0.0 -0.199754 100.024796 6.442115 0.404091 -1.362467 2.458083 0.985136 0.328376 -5.469612 -0.316486 1.05395 -7.317548 -2.73952 -0.17197 5.689687 -4.910037 1.232275 -35.847324 2.283508 3.35789 -3.614402 4.716664 -2.86354 -18.418665 7.7e-05 -2.2e-05 7e-06 -0.17914 -0.116028 -0.010973 0.432931 -3.718078 -9.479841 -0.799544 3.522867 -9.736499 24.877544 -11.393772 8.740337 40.182964 12.39767 -80.873917 2.62979 -13.319641 -1.366555 21.896088 4.337283 -47.443409 -5.882107 9.86129 0.702592 -10.936879 -0.360576 7.156208 2e-06 8.774831 -1e-06 -16.54846 18.136745 6.061095 -1.844034 2.498506 -2.507278 -10.163607 4.678946 4.621112 -20.97604 -7e-06 4e-06 -21.226301 2.451697 -3.593995 -1e-06 -6e-06 -0.0 -1.362682 2.240799 -0.746324 -21.33493 0.584907 3.008326 -13.821224 -5e-06 2e-06 -23.887186 -0.249081 -0.83948 -58.078972 3.324389 -0.691997 -0.294026 1.679689 0.833257 -14.218221 0.093213 1.300583 -34.212078 -0.287568 0.967173 -20.03323 0.964535 1.212845 1e-06 -0.0 0.0 -3.440391 0.788233 0.501656 -15.928196 -3.167315 2.999708 -6.33883 -2e-06 2e-06 -18.123459 3.648182 -4.905669 -3e-06 -0.0 -0.0 -28.094185 18.919403 3.637336 -45.605446 -12.042411 -73.770309 -0.203018 17.408136 -0.705943 -12.845307 -8.446793 18.138538 2.243542 -5.255039 -3.180157 14.282896 -0.826595 6.952503 -2e-06 -12.69061 -0.0 16.312042 -16.397228 2.308026 1.665667 -1.955922 -2.878299 4.7278 -4.17059 4.993924 11.02053 3e-06 -2e-06 12.109057 -3.735718 -2.866784 0.0 -0.0 0.0 1.291986 -1.92855 -1.49809 14.800132 0.567468 3.865606 14.242577 -1.341739 -6.660657 19.631973 0.143925 -0.648245 49.471111 -1.012543 -6.473165 0.35303 -1.511151 -0.03194 20.222801 3.684311 2.316632 18.787281 4e-06 -1e-06 10.751636 -0.479868 1.397907 -1e-06 -0.0 -1e-06 3.273808 0.305947 -0.58011 21.48682 11.830379 2.266133 8.16293 2e-06 -1e-06 18.399088 -3.798986 -4.940578 3e-06 0.0 -0.0 2.383669 7.723267 2.7797 0.04593 -0.256341 1.259711 -3.78739 -2.757512 -3.652637 1.676617 -1.911775 -0.927613 0.0 0.0 2e-06 -2.395747 -2.898994 1.354186 -0.04125 -0.070732 4.538516 3.211827 -2.546759 -7.870106 -1.434235 1.288532 -0.118909 -0.0 -0.0 -1e-06 
0.0 0.0 0.0 0.0 -0.0 0.0 -0.195655 100.017227 6.509826 0.394911 -1.380618 2.463076 0.978535 0.327671 -5.525508 -0.309299 1.065309 -7.317796 -2.729666 -0.197047 5.630441 -4.964771 1.226009 -35.606102 2.291435 3.414746 -3.619693 4.764063 -2.745662 -18.308437 7.7e-05 -2.3e-05 6e-06 -0.188798 -0.122076 -0.010458 0.416729 -3.712829 -9.446039 -0.802464 3.506508 -9.702132 24.914423 -11.342457 8.779803 40.146709 12.348648 -80.938797 2.596694 -13.327282 -1.393568 21.957645 4.533305 -47.972256 -5.882106 9.861286 0.702589 -10.936872 -0.360575 7.156205 -1e-06 8.774824 -1e-06 -16.565664 18.127583 6.024408 -1.844033 2.498504 -2.507277 -10.163601 4.678944 4.621108 -20.976025 -3e-06 2e-06 -21.226288 2.451698 -3.593999 -0.0 -6e-06 -0.0 -1.362681 2.240799 -0.746322 -21.334913 0.584911 3.008324 -13.821215 -1e-06 1e-06 -23.887171 -0.249077 -0.839484 -58.051689 3.305936 -0.697063 -0.294025 1.679687 0.833254 -14.218208 0.093216 1.300581 -34.212051 -0.287561 0.967171 -20.033215 0.964539 1.212843 -0.0 0.0 0.0 -3.440389 0.788234 0.501655 -15.928187 -3.167308 2.999707 -6.338827 -1e-06 0.0 -18.123446 3.648183 -4.90567 -3e-06 -0.0 0.0 -28.073336 18.921524 3.59751 -45.711353 -11.958048 -73.75779 -0.331433 17.45573 -0.739768 -12.97166 -8.520174 18.491199 2.243541 -5.255037 -3.180158 14.282891 -0.826594 6.952502 -3e-06 -12.690605 -0.0 16.294897 -16.368263 2.292991 1.665666 -1.955921 -2.878298 4.727798 -4.170587 4.993924 11.020524 4e-06 -1e-06 12.109053 -3.735715 -2.866783 0.0 -0.0 0.0 1.291986 -1.928549 -1.498088 14.800129 0.567469 3.865608 14.242572 -1.341736 -6.660656 19.631969 0.143926 -0.648243 49.396263 -1.016384 -6.482606 0.353029 -1.51115 -0.03194 20.22279 3.68431 2.316633 18.787271 5e-06 1e-06 10.751628 -0.479868 1.397906 -0.0 0.0 -2e-06 3.273807 0.305947 -0.580111 21.486813 11.830376 2.266135 8.162927 2e-06 0.0 18.399076 -3.798985 -4.940574 2e-06 -0.0 -0.0 2.391874 7.736812 2.797593 0.043877 -0.264569 1.300821 -3.82199 -2.758109 -3.693033 1.676429 -1.927104 -0.943384 -0.0 -0.0 2e-06 -2.41035 -2.904864 1.380692 -0.032615 -0.057981 4.545766 3.262462 -2.513843 -7.867326 -1.436958 1.284168 -0.123599 -0.0 -0.0 -1e-06 
0.0 0.0 0.0 0.0 -0.0 0.0 -0.175949 100.006912 6.558942 0.392261 -1.391019 2.455886 0.984842 0.335053 -5.583558 -0.298773 1.075546 -7.317866 -2.716918 -0.218533 5.599821 -5.024823 1.187248 -35.356026 2.317314 3.478176 -3.630883 4.786443 -2.628424 -18.192066 7.7e-05 -2.2e-05 6e-06 -0.196372 -0.127266 -0.012251 0.398863 -3.706475 -9.42265 -0.799729 3.490941 -9.681983 24.889835 -11.297179 8.81821 40.175133 12.263065 -81.00766 2.582309 -13.238222 -1.430444 22.006237 4.67867 -48.596703 -5.882109 9.86129 0.702592 -10.93688 -0.360577 7.156211 3e-06 8.774831 -0.0 -16.566195 18.110836 5.997607 -1.844031 2.498505 -2.507279 -10.163604 4.678946 4.621113 -20.976038 -7e-06 7e-06 -21.226299 2.451694 -3.593997 -0.0 -6e-06 -1e-06 -1.362681 2.240799 -0.746325 -21.334929 0.584904 3.008328 -13.821221 -6e-06 3e-06 -23.887184 -0.249082 -0.839477 -58.079742 3.289801 -0.703555 -0.294024 1.679688 0.833256 -14.218218 0.09321 1.300581 -34.212074 -0.287571 0.967178 -20.033228 0.964534 1.21285 -1e-06 1e-06 -1e-06 -3.44039 0.788232 0.501655 -15.928201 -3.167316 2.999711 -6.33883 -3e-06 0.0 -18.123457 3.648181 -4.905669 -4e-06 -0.0 -2e-06 -28.019157 18.864937 3.571693 -45.871162 -11.773481 -73.821037 -0.450779 17.542938 -0.774545 -13.106903 -8.491153 18.76092 2.243543 -5.255041 -3.180159 14.282896 -0.826596 6.952507 -1e-06 -12.690615 0.0 16.278906 -16.311033 2.254047 1.665667 -1.955923 -2.878301 4.7278 -4.17059 4.993927 11.020529 2e-06 -0.0 12.109056 -3.735721 -2.866787 0.0 -0.0 0.0 1.291986 -1.928551 -1.49809 14.800134 0.567467 3.865611 14.242577 -1.34174 -6.660661 19.631975 0.143925 -0.648245 49.340477 -1.014915 -6.519203 0.353029 -1.511152 -0.031938 20.222799 3.68431 2.316632 18.787281 2e-06 -1e-06 10.751634 -0.479869 1.397906 -2e-06 -0.0 -0.0 3.273808 0.305947 -0.580112 21.48682 11.830382 2.266138 8.16293 1e-06 -1e-06 18.39909 -3.79899 -4.940578 3e-06 -0.0 -0.0 2.390883 7.759575 2.810892 0.039372 -0.271072 1.347798 -3.842133 -2.782093 -3.746156 1.676675 -1.958126 -0.967797 -0.0 -0.0 2e-06 -2.436582 -2.894417 1.401533 -0.021849 -0.050285 4.559741 3.307492 -2.49534 -7.858382 -1.438213 1.278402 -0.171777 -0.0 -0.0 -1e-06 
